<mxfile host="drawio-plugin" modified="2022-02-15T14:13:43.982Z" agent="5.0 (Windows NT 6.2; Win64; x64) AppleWebKit/537.36 (KHTML, like Gecko) Chrome/89.0.4389.114 Safari/537.36" version="15.5.4" etag="2j8ff5l9nH6VoSF9JWjB" type="embed"><diagram id="rliFGnA_AaAxWhDnBamm" name="第 1 页"><mxGraphModel dx="1140" dy="525" grid="1" gridSize="10" guides="1" tooltips="1" connect="1" arrows="1" fold="1" page="1" pageScale="1" pageWidth="827" pageHeight="1169" background="none" math="0" shadow="0"><root><mxCell id="0"/><mxCell id="1" parent="0"/><mxCell id="4" value="" style="edgeStyle=none;html=1;fontFamily=Helvetica;fontSize=12;fontColor=default;sketch=1;" parent="1" source="2" target="3" edge="1"><mxGeometry relative="1" as="geometry"/></mxCell><mxCell id="2" value="&lt;div style=&quot;color: rgb(200 , 211 , 245) ; background-color: rgb(34 , 36 , 54) ; font-family: &amp;#34;cascadia mono&amp;#34; , &amp;#34;menlo&amp;#34; , &amp;#34;monaco&amp;#34; , &amp;#34;courier new&amp;#34; , monospace , &amp;#34;menlo&amp;#34; , &amp;#34;monaco&amp;#34; , &amp;#34;courier new&amp;#34; , monospace ; font-size: 15px ; line-height: 23px&quot;&gt;&lt;span style=&quot;color: #c3e88d&quot;&gt;autoCode/&lt;/span&gt;&lt;span style=&quot;color: rgb(195 , 232 , 141) ; font-family: &amp;#34;cascadia mono&amp;#34; , &amp;#34;menlo&amp;#34; , &amp;#34;monaco&amp;#34; , &amp;#34;courier new&amp;#34; , monospace , &amp;#34;menlo&amp;#34; , &amp;#34;monaco&amp;#34; , &amp;#34;courier new&amp;#34; , monospace&quot;&gt;preview&lt;/span&gt;&lt;/div&gt;" style="rounded=1;whiteSpace=wrap;html=1;sketch=1;" parent="1" vertex="1"><mxGeometry x="155.75" y="80" width="199" height="60" as="geometry"/></mxCell><mxCell id="6" value="" style="edgeStyle=none;html=1;fontFamily=Helvetica;fontSize=12;fontColor=default;sketch=1;" parent="1" source="3" target="5" edge="1"><mxGeometry relative="1" as="geometry"/></mxCell><mxCell id="3" value="&lt;div style=&quot;color: rgb(200 , 211 , 245) ; background-color: rgb(34 , 36 , 54) ; font-family: &amp;#34;cascadia mono&amp;#34; , &amp;#34;menlo&amp;#34; , &amp;#34;monaco&amp;#34; , &amp;#34;courier new&amp;#34; , monospace , &amp;#34;menlo&amp;#34; , &amp;#34;monaco&amp;#34; , &amp;#34;courier new&amp;#34; , monospace ; font-size: 15px ; line-height: 23px&quot;&gt;&lt;span style=&quot;font-family: &amp;#34;cascadia mono&amp;#34; , &amp;#34;menlo&amp;#34; , &amp;#34;monaco&amp;#34; , &amp;#34;courier new&amp;#34; , monospace , &amp;#34;menlo&amp;#34; , &amp;#34;monaco&amp;#34; , &amp;#34;courier new&amp;#34; , monospace&quot;&gt;autoCodeApi.&lt;/span&gt;&lt;span style=&quot;color: #82aaff&quot;&gt;PreviewTemp&lt;/span&gt;&lt;/div&gt;" style="rounded=1;whiteSpace=wrap;html=1;sketch=1;" parent="1" vertex="1"><mxGeometry x="120.5" y="220" width="269.5" height="60" as="geometry"/></mxCell><mxCell id="8" value="" style="edgeStyle=none;html=1;fontFamily=Helvetica;fontSize=12;fontColor=default;sketch=1;" parent="1" source="5" target="7" edge="1"><mxGeometry relative="1" as="geometry"/></mxCell><mxCell id="5" value="&lt;div style=&quot;color: rgb(200 , 211 , 245) ; background-color: rgb(34 , 36 , 54) ; font-family: &amp;#34;cascadia mono&amp;#34; , &amp;#34;menlo&amp;#34; , &amp;#34;monaco&amp;#34; , &amp;#34;courier new&amp;#34; , monospace , &amp;#34;menlo&amp;#34; , &amp;#34;monaco&amp;#34; , &amp;#34;courier new&amp;#34; , monospace ; font-size: 15px ; line-height: 23px&quot;&gt;autoCodeService&lt;span style=&quot;color: #86e1fc&quot;&gt;.&lt;/span&gt;&lt;span style=&quot;color: #65bcff&quot;&gt;PreviewTemp&lt;/span&gt;&lt;/div&gt;" style="whiteSpace=wrap;html=1;rounded=1;sketch=1;" parent="1" vertex="1"><mxGeometry x="120.5" y="360" width="269.5" height="70" as="geometry"/></mxCell><mxCell id="10" value="" style="edgeStyle=none;html=1;fontFamily=Helvetica;fontSize=12;fontColor=default;sketch=1;" parent="1" source="7" target="9" edge="1"><mxGeometry relative="1" as="geometry"/></mxCell><mxCell id="7" value="&lt;span style=&quot;color: rgb(200 , 211 , 245) ; font-family: &amp;#34;cascadia mono&amp;#34; , &amp;#34;menlo&amp;#34; , &amp;#34;monaco&amp;#34; , &amp;#34;courier new&amp;#34; , monospace , &amp;#34;menlo&amp;#34; , &amp;#34;monaco&amp;#34; , &amp;#34;courier new&amp;#34; , monospace ; font-size: 15px ; background-color: rgb(34 , 36 , 54)&quot;&gt;autoCodeService.G&lt;/span&gt;&lt;span style=&quot;color: rgb(130 , 170 , 255) ; background-color: rgb(34 , 36 , 54) ; font-family: &amp;#34;cascadia mono&amp;#34; , &amp;#34;menlo&amp;#34; , &amp;#34;monaco&amp;#34; , &amp;#34;courier new&amp;#34; , monospace , &amp;#34;menlo&amp;#34; , &amp;#34;monaco&amp;#34; , &amp;#34;courier new&amp;#34; , monospace ; font-size: 15px&quot;&gt;etNeedList&lt;/span&gt;&lt;span style=&quot;font-family: &amp;#34;cascadia mono&amp;#34; , &amp;#34;menlo&amp;#34; , &amp;#34;monaco&amp;#34; , &amp;#34;courier new&amp;#34; , monospace , &amp;#34;menlo&amp;#34; , &amp;#34;monaco&amp;#34; , &amp;#34;courier new&amp;#34; , monospace ; font-size: 15px ; color: rgb(134 , 225 , 252)&quot;&gt;&lt;br&gt;&lt;/span&gt;" style="whiteSpace=wrap;html=1;rounded=1;sketch=1;" parent="1" vertex="1"><mxGeometry x="116.43" y="514" width="277.63" height="70.5" as="geometry"/></mxCell><mxCell id="23" value="" style="edgeStyle=none;html=1;sketch=1;" parent="1" source="9" target="22" edge="1"><mxGeometry relative="1" as="geometry"/></mxCell><mxCell id="9" value="&lt;div style=&quot;color: rgb(200 , 211 , 245) ; background-color: rgb(34 , 36 , 54) ; font-family: &amp;#34;cascadia mono&amp;#34; , &amp;#34;menlo&amp;#34; , &amp;#34;monaco&amp;#34; , &amp;#34;courier new&amp;#34; , monospace , &amp;#34;menlo&amp;#34; , &amp;#34;monaco&amp;#34; , &amp;#34;courier new&amp;#34; , monospace ; font-size: 15px ; line-height: 23px&quot;&gt;&lt;div style=&quot;font-family: &amp;#34;cascadia mono&amp;#34; , &amp;#34;menlo&amp;#34; , &amp;#34;monaco&amp;#34; , &amp;#34;courier new&amp;#34; , monospace , &amp;#34;menlo&amp;#34; , &amp;#34;monaco&amp;#34; , &amp;#34;courier new&amp;#34; , monospace ; line-height: 23px&quot;&gt;&lt;span style=&quot;color: #7a88cf&quot;&gt;获取 pathName 文件夹下所有 tpl 文件&lt;/span&gt;&lt;/div&gt;&lt;/div&gt;&lt;div style=&quot;color: rgb(200 , 211 , 245) ; background-color: rgb(34 , 36 , 54) ; font-family: &amp;#34;cascadia mono&amp;#34; , &amp;#34;menlo&amp;#34; , &amp;#34;monaco&amp;#34; , &amp;#34;courier new&amp;#34; , monospace , &amp;#34;menlo&amp;#34; , &amp;#34;monaco&amp;#34; , &amp;#34;courier new&amp;#34; , monospace ; font-size: 15px ; line-height: 23px&quot;&gt;autoCodeService&lt;span style=&quot;color: rgb(134 , 225 , 252)&quot;&gt;.&lt;/span&gt;&lt;span style=&quot;color: rgb(130 , 170 , 255) ; font-family: &amp;#34;cascadia mono&amp;#34; , &amp;#34;menlo&amp;#34; , &amp;#34;monaco&amp;#34; , &amp;#34;courier new&amp;#34; , monospace , &amp;#34;menlo&amp;#34; , &amp;#34;monaco&amp;#34; , &amp;#34;courier new&amp;#34; , monospace&quot;&gt;GetAllTplFile&lt;/span&gt;&lt;/div&gt;" style="whiteSpace=wrap;html=1;rounded=1;sketch=1;" parent="1" vertex="1"><mxGeometry x="75.5" y="669.75" width="359.5" height="70.25" as="geometry"/></mxCell><mxCell id="13" value="" style="edgeStyle=none;html=1;sketch=1;" parent="1" source="11" target="12" edge="1"><mxGeometry relative="1" as="geometry"/></mxCell><mxCell id="11" value="配置数据库" style="shape=cylinder3;whiteSpace=wrap;html=1;boundedLbl=1;backgroundOutline=1;size=15;sketch=1;" parent="1" vertex="1"><mxGeometry x="-180" y="50" width="150" height="60" as="geometry"/></mxCell><mxCell id="15" value="" style="edgeStyle=none;html=1;sketch=1;" parent="1" source="12" target="14" edge="1"><mxGeometry relative="1" as="geometry"/></mxCell><mxCell id="12" value="读取数据库" style="whiteSpace=wrap;html=1;sketch=1;" parent="1" vertex="1"><mxGeometry x="-165" y="190" width="120" height="60" as="geometry"/></mxCell><mxCell id="14" value="选择表，读取字段" style="whiteSpace=wrap;html=1;sketch=1;" parent="1" vertex="1"><mxGeometry x="-165" y="330" width="120" height="60" as="geometry"/></mxCell><mxCell id="20" value="" style="curved=1;endArrow=classic;html=1;exitX=0.5;exitY=1;exitDx=0;exitDy=0;entryX=0;entryY=0.5;entryDx=0;entryDy=0;sketch=1;" parent="1" source="14" target="2" edge="1"><mxGeometry width="50" height="50" relative="1" as="geometry"><mxPoint x="530" y="410" as="sourcePoint"/><mxPoint x="220" y="90" as="targetPoint"/><Array as="points"><mxPoint y="440"/><mxPoint x="10" y="250"/><mxPoint x="40" y="160"/></Array></mxGeometry></mxCell><mxCell id="25" value="" style="edgeStyle=none;html=1;fontSize=15;sketch=1;" parent="1" source="22" target="24" edge="1"><mxGeometry relative="1" as="geometry"/></mxCell><mxCell id="27" value="" style="edgeStyle=none;html=1;fontSize=14;sketch=1;" parent="1" source="22" target="26" edge="1"><mxGeometry relative="1" as="geometry"/></mxCell><mxCell id="22" value="&lt;font style=&quot;font-size: 15px&quot;&gt;api&amp;nbsp; &amp;nbsp; &amp;nbsp; &amp;nbsp; ｜&amp;nbsp; api&lt;br&gt;mode&amp;nbsp; &amp;nbsp; ｜form&lt;br&gt;request&amp;nbsp; ｜table&lt;br&gt;router&amp;nbsp; &amp;nbsp; ｜&amp;nbsp; &amp;nbsp; &amp;nbsp; &amp;nbsp;&lt;br&gt;service&amp;nbsp; ｜&amp;nbsp; &amp;nbsp; &amp;nbsp; &amp;nbsp;&lt;/font&gt;" style="shape=document;whiteSpace=wrap;html=1;boundedLbl=1;rounded=1;sketch=1;" parent="1" vertex="1"><mxGeometry x="162.88" y="815.13" width="184.75" height="124.88" as="geometry"/></mxCell><mxCell id="24" value="&lt;font style=&quot;font-size: 14px&quot;&gt;预览文件&lt;/font&gt;" style="rhombus;whiteSpace=wrap;html=1;rounded=1;sketch=1;" parent="1" vertex="1"><mxGeometry x="-49.495000000000005" y="837.5699999999999" width="80" height="80" as="geometry"/></mxCell><mxCell id="26" value="&lt;font style=&quot;font-size: 14px&quot;&gt;创建、&lt;br&gt;移动文件&lt;/font&gt;" style="rhombus;whiteSpace=wrap;html=1;rounded=1;sketch=1;" parent="1" vertex="1"><mxGeometry x="480.005" y="837.5699999999999" width="80" height="80" as="geometry"/></mxCell></root></mxGraphModel></diagram></mxfile>